# xmcd
#
# Track frame offsets:
#   150
#   16844
#   33914
#   49583
#   67391
#   83082
#   99335
#   115752
#   130420
#   147035
#   165382
#   182522
#   200642
#   216476
#
# Disc length: 3141 seconds
#
# Revision: 0
# Processed by: cddbd v1.5.2PL0 Copyright (c) Steve Scherf et al.
# Submitted via: GXTranscoder 2.0.1939
#
DISCID=bf0c430e
DTITLE=Andrea Berg - Andrea berg
DYEAR=1900
DGENRE=Alternative
TTITLE0=Du kannst noch nicht mal richtig lügen
TTITLE1=Ich liebe das Leben
TTITLE2=sdds
TTITLE3=sfghj
TTITLE4=Zum teufel mit der einsamkeit
TTITLE5=sdfgh
TTITLE6=rtz
TTITLE7=endlich du
TTITLE8=Schenk mir einen stern
TTITLE9=dsfgh
TTITLE10=sdtzu
TTITLE11=rt
TTITLE12=sdfdgh
TTITLE13=diese Träne
EXTD=
EXTT0=
EXTT1=
EXTT2=
EXTT3=
EXTT4=
EXTT5=
EXTT6=
EXTT7=
EXTT8=
EXTT9=
EXTT10=
EXTT11=
EXTT12=
EXTT13=
PLAYORDER=
